<mxfile host="Electron" modified="2023-06-07T10:02:42.968Z" agent="Mozilla/5.0 (X11; Linux x86_64) AppleWebKit/537.36 (KHTML, like Gecko) draw.io/21.2.8 Chrome/106.0.5249.199 Electron/21.4.4 Safari/537.36" etag="AoY5xteqH0jUa3JgJCUu" version="21.2.8" type="device">
  <diagram name="Page-1" id="2YBvvXClWsGukQMizWep">
    <mxGraphModel dx="1434" dy="-243" grid="1" gridSize="10" guides="1" tooltips="1" connect="1" arrows="1" fold="1" page="1" pageScale="1" pageWidth="850" pageHeight="1100" math="0" shadow="0">
      <root>
        <mxCell id="0" />
        <mxCell id="1" parent="0" />
        <mxCell id="e4sT_B0Zx0sF4ydA3e-R-1" value="" style="shape=umlLifeline;perimeter=lifelinePerimeter;whiteSpace=wrap;html=1;container=1;dropTarget=0;collapsible=0;recursiveResize=0;outlineConnect=0;portConstraint=eastwest;newEdgeStyle={&quot;edgeStyle&quot;:&quot;elbowEdgeStyle&quot;,&quot;elbow&quot;:&quot;vertical&quot;,&quot;curved&quot;:0,&quot;rounded&quot;:0};participant=umlActor;" parent="1" vertex="1">
          <mxGeometry x="160" y="1160" width="20" height="720" as="geometry" />
        </mxCell>
        <mxCell id="e4sT_B0Zx0sF4ydA3e-R-2" value="" style="html=1;points=[];perimeter=orthogonalPerimeter;outlineConnect=0;targetShapes=umlLifeline;portConstraint=eastwest;newEdgeStyle={&quot;edgeStyle&quot;:&quot;elbowEdgeStyle&quot;,&quot;elbow&quot;:&quot;vertical&quot;,&quot;curved&quot;:0,&quot;rounded&quot;:0};" parent="e4sT_B0Zx0sF4ydA3e-R-1" vertex="1">
          <mxGeometry x="5" y="40" width="10" height="630" as="geometry" />
        </mxCell>
        <mxCell id="GCsYeASOzyGE3Qa3lxFm-7" value="" style="html=1;points=[];perimeter=orthogonalPerimeter;outlineConnect=0;targetShapes=umlLifeline;portConstraint=eastwest;newEdgeStyle={&quot;edgeStyle&quot;:&quot;elbowEdgeStyle&quot;,&quot;elbow&quot;:&quot;vertical&quot;,&quot;curved&quot;:0,&quot;rounded&quot;:0};" parent="e4sT_B0Zx0sF4ydA3e-R-1" vertex="1">
          <mxGeometry x="10" y="590" width="10" height="40" as="geometry" />
        </mxCell>
        <mxCell id="GCsYeASOzyGE3Qa3lxFm-8" value="printResults()" style="html=1;align=left;spacingLeft=2;endArrow=block;rounded=0;edgeStyle=orthogonalEdgeStyle;curved=0;rounded=0;" parent="e4sT_B0Zx0sF4ydA3e-R-1" target="GCsYeASOzyGE3Qa3lxFm-7" edge="1">
          <mxGeometry relative="1" as="geometry">
            <mxPoint x="15" y="570" as="sourcePoint" />
            <Array as="points">
              <mxPoint x="50" y="570" />
              <mxPoint x="50" y="610" />
            </Array>
          </mxGeometry>
        </mxCell>
        <mxCell id="e4sT_B0Zx0sF4ydA3e-R-34" value="Deserializer" style="shape=umlLifeline;perimeter=lifelinePerimeter;whiteSpace=wrap;html=1;container=1;dropTarget=0;collapsible=0;recursiveResize=0;outlineConnect=0;portConstraint=eastwest;newEdgeStyle={&quot;edgeStyle&quot;:&quot;elbowEdgeStyle&quot;,&quot;elbow&quot;:&quot;vertical&quot;,&quot;curved&quot;:0,&quot;rounded&quot;:0};" parent="1" vertex="1">
          <mxGeometry x="310" y="1160" width="100" height="720" as="geometry" />
        </mxCell>
        <mxCell id="e4sT_B0Zx0sF4ydA3e-R-49" value="" style="html=1;points=[];perimeter=orthogonalPerimeter;outlineConnect=0;targetShapes=umlLifeline;portConstraint=eastwest;newEdgeStyle={&quot;edgeStyle&quot;:&quot;elbowEdgeStyle&quot;,&quot;elbow&quot;:&quot;vertical&quot;,&quot;curved&quot;:0,&quot;rounded&quot;:0};" parent="e4sT_B0Zx0sF4ydA3e-R-34" vertex="1">
          <mxGeometry x="45" y="70" width="10" height="210" as="geometry" />
        </mxCell>
        <mxCell id="GCsYeASOzyGE3Qa3lxFm-5" value="" style="html=1;points=[];perimeter=orthogonalPerimeter;outlineConnect=0;targetShapes=umlLifeline;portConstraint=eastwest;newEdgeStyle={&quot;edgeStyle&quot;:&quot;elbowEdgeStyle&quot;,&quot;elbow&quot;:&quot;vertical&quot;,&quot;curved&quot;:0,&quot;rounded&quot;:0};" parent="e4sT_B0Zx0sF4ydA3e-R-34" vertex="1">
          <mxGeometry x="50" y="180" width="10" height="40" as="geometry" />
        </mxCell>
        <mxCell id="GCsYeASOzyGE3Qa3lxFm-6" value="deserialize(File)" style="html=1;align=left;spacingLeft=2;endArrow=block;rounded=0;edgeStyle=orthogonalEdgeStyle;curved=0;rounded=0;" parent="e4sT_B0Zx0sF4ydA3e-R-34" source="e4sT_B0Zx0sF4ydA3e-R-49" target="GCsYeASOzyGE3Qa3lxFm-5" edge="1">
          <mxGeometry relative="1" as="geometry">
            <mxPoint x="60" y="160" as="sourcePoint" />
            <Array as="points">
              <mxPoint x="90" y="160" />
              <mxPoint x="90" y="200" />
            </Array>
          </mxGeometry>
        </mxCell>
        <mxCell id="e4sT_B0Zx0sF4ydA3e-R-36" value="Tokenizer" style="shape=umlLifeline;perimeter=lifelinePerimeter;whiteSpace=wrap;html=1;container=0;dropTarget=0;collapsible=0;recursiveResize=0;outlineConnect=0;portConstraint=eastwest;newEdgeStyle={&quot;edgeStyle&quot;:&quot;elbowEdgeStyle&quot;,&quot;elbow&quot;:&quot;vertical&quot;,&quot;curved&quot;:0,&quot;rounded&quot;:0};" parent="1" vertex="1">
          <mxGeometry x="510" y="1160" width="130" height="720" as="geometry" />
        </mxCell>
        <mxCell id="e4sT_B0Zx0sF4ydA3e-R-38" value="&lt;font style=&quot;font-size: 10px;&quot;&gt;deserialize(StoreFileName)&lt;/font&gt;" style="endArrow=blockThin;endSize=16;endFill=1;html=1;rounded=0;" parent="1" target="e4sT_B0Zx0sF4ydA3e-R-49" edge="1">
          <mxGeometry x="-0.1429" width="160" relative="1" as="geometry">
            <mxPoint x="175" y="1249.77" as="sourcePoint" />
            <mxPoint x="350" y="1250" as="targetPoint" />
            <mxPoint as="offset" />
            <Array as="points">
              <mxPoint x="340" y="1249.77" />
            </Array>
          </mxGeometry>
        </mxCell>
        <mxCell id="e4sT_B0Zx0sF4ydA3e-R-39" value="&lt;font style=&quot;font-size: 10px;&quot;&gt;readFile(StoreFileName)&lt;/font&gt;" style="endArrow=blockThin;endSize=16;endFill=1;html=1;rounded=0;" parent="1" edge="1">
          <mxGeometry x="0.0513" width="160" relative="1" as="geometry">
            <mxPoint x="365" y="1270" as="sourcePoint" />
            <mxPoint x="995" y="1270" as="targetPoint" />
            <mxPoint as="offset" />
            <Array as="points">
              <mxPoint x="535" y="1270" />
            </Array>
          </mxGeometry>
        </mxCell>
        <mxCell id="e4sT_B0Zx0sF4ydA3e-R-40" value="&lt;font style=&quot;font-size: 10px;&quot;&gt;File&lt;/font&gt;" style="endArrow=openThin;endSize=12;dashed=1;html=1;rounded=0;endFill=0;" parent="1" edge="1">
          <mxGeometry x="-0.0513" width="160" relative="1" as="geometry">
            <mxPoint x="995" y="1300" as="sourcePoint" />
            <mxPoint x="365" y="1300" as="targetPoint" />
            <Array as="points">
              <mxPoint x="740" y="1300" />
              <mxPoint x="650" y="1300" />
            </Array>
            <mxPoint as="offset" />
          </mxGeometry>
        </mxCell>
        <mxCell id="GCsYeASOzyGE3Qa3lxFm-3" value="&lt;font style=&quot;font-size: 10px;&quot;&gt;getArticles()&lt;/font&gt;" style="endArrow=blockThin;endSize=16;endFill=1;html=1;rounded=0;" parent="1" edge="1">
          <mxGeometry x="-0.0426" width="160" relative="1" as="geometry">
            <mxPoint x="175" y="1400" as="sourcePoint" />
            <mxPoint x="355" y="1400" as="targetPoint" />
            <mxPoint as="offset" />
            <Array as="points">
              <mxPoint x="345" y="1400" />
            </Array>
          </mxGeometry>
        </mxCell>
        <mxCell id="GCsYeASOzyGE3Qa3lxFm-4" value="&lt;font style=&quot;font-size: 10px;&quot;&gt;articles&lt;/font&gt;" style="endArrow=openThin;endSize=12;dashed=1;html=1;rounded=0;endFill=0;" parent="1" edge="1">
          <mxGeometry x="0.0426" width="160" relative="1" as="geometry">
            <mxPoint x="355" y="1430" as="sourcePoint" />
            <mxPoint x="175" y="1430" as="targetPoint" />
            <Array as="points">
              <mxPoint x="310" y="1430" />
            </Array>
            <mxPoint as="offset" />
          </mxGeometry>
        </mxCell>
        <mxCell id="GCsYeASOzyGE3Qa3lxFm-9" value="&lt;font style=&quot;font-size: 10px;&quot;&gt;StoreFileName&lt;/font&gt;" style="endArrow=blockThin;endSize=16;endFill=1;html=1;rounded=0;" parent="1" target="e4sT_B0Zx0sF4ydA3e-R-2" edge="1">
          <mxGeometry x="-0.1429" width="160" relative="1" as="geometry">
            <mxPoint x="40" y="1230" as="sourcePoint" />
            <mxPoint x="160" y="1230.23" as="targetPoint" />
            <mxPoint as="offset" />
            <Array as="points">
              <mxPoint x="145" y="1230" />
            </Array>
          </mxGeometry>
        </mxCell>
        <mxCell id="e4sT_B0Zx0sF4ydA3e-R-45" value="loop" style="shape=umlFrame;whiteSpace=wrap;html=1;pointerEvents=0;" parent="1" vertex="1">
          <mxGeometry x="40" y="1450" width="810" height="150" as="geometry" />
        </mxCell>
        <mxCell id="e4sT_B0Zx0sF4ydA3e-R-46" value="&lt;font style=&quot;font-size: 10px;&quot;&gt;maxInt = [articles.size()]&lt;/font&gt;" style="text;strokeColor=none;fillColor=none;align=left;verticalAlign=top;spacingLeft=4;spacingRight=4;overflow=hidden;rotatable=0;points=[[0,0.5],[1,0.5]];portConstraint=eastwest;whiteSpace=wrap;html=1;" parent="1" vertex="1">
          <mxGeometry x="40" y="1480" width="130" height="26" as="geometry" />
        </mxCell>
        <mxCell id="e4sT_B0Zx0sF4ydA3e-R-48" value="&lt;font style=&quot;font-size: 10px;&quot;&gt;&amp;lt;&amp;lt;wait&amp;gt;&amp;gt;&lt;/font&gt;" style="endArrow=openThin;endSize=12;dashed=1;html=1;rounded=0;endFill=0;" parent="1" source="e4sT_B0Zx0sF4ydA3e-R-51" edge="1">
          <mxGeometry x="0.0263" width="160" relative="1" as="geometry">
            <mxPoint x="790" y="1550" as="sourcePoint" />
            <mxPoint x="175" y="1550" as="targetPoint" />
            <Array as="points">
              <mxPoint x="550" y="1550" />
              <mxPoint x="300" y="1550" />
            </Array>
            <mxPoint as="offset" />
          </mxGeometry>
        </mxCell>
        <mxCell id="e4sT_B0Zx0sF4ydA3e-R-51" value="" style="html=1;points=[];perimeter=orthogonalPerimeter;outlineConnect=0;targetShapes=umlLifeline;portConstraint=eastwest;newEdgeStyle={&quot;edgeStyle&quot;:&quot;elbowEdgeStyle&quot;,&quot;elbow&quot;:&quot;vertical&quot;,&quot;curved&quot;:0,&quot;rounded&quot;:0};container=0;" parent="1" vertex="1">
          <mxGeometry x="570" y="1480" width="10" height="90" as="geometry" />
        </mxCell>
        <mxCell id="e4sT_B0Zx0sF4ydA3e-R-55" value="&lt;font style=&quot;font-size: 10px;&quot;&gt;tokenize(singleArticle,queries)&lt;/font&gt;" style="endArrow=blockThin;endSize=16;endFill=1;html=1;rounded=0;" parent="1" target="e4sT_B0Zx0sF4ydA3e-R-51" edge="1">
          <mxGeometry x="-0.0263" width="160" relative="1" as="geometry">
            <mxPoint x="175" y="1506" as="sourcePoint" />
            <mxPoint x="650" y="1505.9999999999998" as="targetPoint" />
            <mxPoint as="offset" />
            <Array as="points">
              <mxPoint x="345" y="1506" />
            </Array>
          </mxGeometry>
        </mxCell>
        <mxCell id="klvqDcqPJ6OCZLe0ZSL4-13" value="TreeStorage" style="shape=umlLifeline;perimeter=lifelinePerimeter;whiteSpace=wrap;html=1;container=0;dropTarget=0;collapsible=0;recursiveResize=0;outlineConnect=0;portConstraint=eastwest;newEdgeStyle={&quot;edgeStyle&quot;:&quot;elbowEdgeStyle&quot;,&quot;elbow&quot;:&quot;vertical&quot;,&quot;curved&quot;:0,&quot;rounded&quot;:0};" vertex="1" parent="1">
          <mxGeometry x="730" y="1160" width="130" height="720" as="geometry" />
        </mxCell>
        <mxCell id="klvqDcqPJ6OCZLe0ZSL4-18" value="" style="html=1;points=[];perimeter=orthogonalPerimeter;outlineConnect=0;targetShapes=umlLifeline;portConstraint=eastwest;newEdgeStyle={&quot;edgeStyle&quot;:&quot;elbowEdgeStyle&quot;,&quot;elbow&quot;:&quot;vertical&quot;,&quot;curved&quot;:0,&quot;rounded&quot;:0};" vertex="1" parent="klvqDcqPJ6OCZLe0ZSL4-13">
          <mxGeometry x="60" y="320" width="10" height="230" as="geometry" />
        </mxCell>
        <mxCell id="klvqDcqPJ6OCZLe0ZSL4-16" value="OS FileSystem" style="shape=umlLifeline;perimeter=lifelinePerimeter;whiteSpace=wrap;html=1;container=1;dropTarget=0;collapsible=0;recursiveResize=0;outlineConnect=0;portConstraint=eastwest;newEdgeStyle={&quot;edgeStyle&quot;:&quot;elbowEdgeStyle&quot;,&quot;elbow&quot;:&quot;vertical&quot;,&quot;curved&quot;:0,&quot;rounded&quot;:0};participant=umlEntity;" vertex="1" parent="1">
          <mxGeometry x="960" y="1160" width="80" height="720" as="geometry" />
        </mxCell>
        <mxCell id="klvqDcqPJ6OCZLe0ZSL4-14" value="" style="html=1;points=[];perimeter=orthogonalPerimeter;outlineConnect=0;targetShapes=umlLifeline;portConstraint=eastwest;newEdgeStyle={&quot;edgeStyle&quot;:&quot;elbowEdgeStyle&quot;,&quot;elbow&quot;:&quot;vertical&quot;,&quot;curved&quot;:0,&quot;rounded&quot;:0};container=0;" vertex="1" parent="klvqDcqPJ6OCZLe0ZSL4-16">
          <mxGeometry x="35" y="80" width="10" height="80" as="geometry" />
        </mxCell>
        <mxCell id="klvqDcqPJ6OCZLe0ZSL4-17" value="&lt;font style=&quot;font-size: 10px;&quot;&gt;enterTokens(tokenizedArticle)&lt;/font&gt;" style="endArrow=open;endSize=16;endFill=0;html=1;rounded=0;" edge="1" parent="1" target="klvqDcqPJ6OCZLe0ZSL4-18">
          <mxGeometry x="-0.1429" width="160" relative="1" as="geometry">
            <mxPoint x="580" y="1530" as="sourcePoint" />
            <mxPoint x="760" y="1530.23" as="targetPoint" />
            <mxPoint as="offset" />
            <Array as="points">
              <mxPoint x="745" y="1530" />
            </Array>
          </mxGeometry>
        </mxCell>
        <mxCell id="klvqDcqPJ6OCZLe0ZSL4-19" value="&lt;font style=&quot;font-size: 10px;&quot;&gt;getOrderedTokens(tokensNumber)&lt;/font&gt;" style="endArrow=blockThin;endSize=16;endFill=1;html=1;rounded=0;" edge="1" parent="1" source="e4sT_B0Zx0sF4ydA3e-R-2" target="klvqDcqPJ6OCZLe0ZSL4-18">
          <mxGeometry x="-0.0081" width="160" relative="1" as="geometry">
            <mxPoint x="180" y="1640" as="sourcePoint" />
            <mxPoint x="770" y="1640" as="targetPoint" />
            <mxPoint as="offset" />
            <Array as="points">
              <mxPoint x="350" y="1640" />
              <mxPoint x="560" y="1640" />
            </Array>
          </mxGeometry>
        </mxCell>
        <mxCell id="klvqDcqPJ6OCZLe0ZSL4-20" value="&lt;span style=&quot;font-size: 10px;&quot;&gt;orderedTokens&lt;/span&gt;" style="endArrow=openThin;endSize=12;dashed=1;html=1;rounded=0;endFill=0;" edge="1" parent="1" source="klvqDcqPJ6OCZLe0ZSL4-18" target="e4sT_B0Zx0sF4ydA3e-R-2">
          <mxGeometry x="0.0732" width="160" relative="1" as="geometry">
            <mxPoint x="780" y="1690" as="sourcePoint" />
            <mxPoint x="180" y="1690" as="targetPoint" />
            <Array as="points">
              <mxPoint x="555" y="1690" />
              <mxPoint x="465" y="1690" />
            </Array>
            <mxPoint as="offset" />
          </mxGeometry>
        </mxCell>
      </root>
    </mxGraphModel>
  </diagram>
</mxfile>
